<svg width="24" height="24" viewBox="0 0 24 24" fill="none" xmlns="http://www.w3.org/2000/svg">
<path fill-rule="evenodd" clip-rule="evenodd" d="M12.5102 8.796V10.493C12.8656 9.95168 13.3555 9.5119 13.9318 9.21671C14.5082 8.92152 15.1513 8.78103 15.7982 8.809C19.2532 8.809 20.0002 10.969 20.0002 13.779V19.5H16.8002V14.428C16.8002 13.218 16.5562 11.662 14.6722 11.662C12.8452 11.662 12.5332 12.979 12.5332 14.338V19.5H9.34324V8.796H12.5102ZM7.20024 6.106C7.19984 6.423 7.10588 6.73284 6.93012 6.99665C6.75436 7.26047 6.50463 7.46653 6.21224 7.589C5.91996 7.71048 5.59816 7.74226 5.28777 7.68029C4.97738 7.61832 4.69245 7.4654 4.46924 7.241C4.2456 7.01646 4.09335 6.73081 4.03163 6.41997C3.96991 6.10913 4.00147 5.78698 4.12235 5.49403C4.24323 5.20108 4.44802 4.95041 4.71098 4.77354C4.97395 4.59667 5.28333 4.5015 5.60024 4.5C5.81086 4.5 6.01941 4.54158 6.21392 4.62236C6.40843 4.70315 6.58508 4.82154 6.73373 4.97075C6.88239 5.11996 7.00012 5.29705 7.08017 5.49186C7.16022 5.68668 7.20103 5.89538 7.20024 6.106Z" fill="white"/>
<path d="M7.2 8.809H4V19.5H7.2V8.809Z" fill="white"/>
</svg>
